<svg viewBox="0 0 250 80" style="background-color:#ffffff" xmlns="http://www.w3.org/2000/svg" width="250" height="80"><path d="M0 65.1h10.54v2.202H2.565v3.81h7.38v2.076h-7.38v4.268h8.117v2.204H0V65.1zM12.72 65.1h3.05l3.322 5.137 3.47-5.136h2.87l-4.845 7.012 5.19 7.546H22.66l-3.647-5.57-3.713 5.57h-2.93l5.19-7.546-4.84-7.01zM37.42 69.725c-.43-1.68-1.52-2.896-3.648-2.896-3.135 0-4.45 2.756-4.45 5.54 0 2.795 1.315 5.552 4.45 5.552 2.276 0 3.526-1.702 3.734-3.81H40C39.798 77.598 37.315 80 33.772 80c-4.39 0-7.013-3.47-7.013-7.63 0-4.144 2.62-7.613 7.012-7.613 3.305.017 5.902 1.833 6.21 4.97h-2.563v-.002zM43.692 65.1h10.53v2.202h-7.97v3.81h7.383v2.076h-7.383v4.268h8.115v2.204H43.692V65.1zM58.252 65.1h10.53v2.202H60.82v3.81h7.376v2.076h-7.376v4.268h8.112v2.204H58.252V65.1zM72.816 65.1h6.067c4.506 0 6.456 3.253 6.456 7.27 0 4.026-1.95 7.286-6.457 7.286h-6.067V65.1zm2.56 12.476h2.522c4.018 0 4.88-2.28 4.88-5.207 0-2.91-.862-5.19-4.88-5.19h-2.522v10.396zM98.345 73.94l-5.493-8.84h2.976l3.872 6.513 3.813-6.512h2.868l-5.47 8.84v5.718h-2.567V73.94h.002zM120.943 72.37c0 4.16-2.62 7.63-7.006 7.63-4.39 0-7.017-3.47-7.017-7.63 0-4.144 2.626-7.613 7.017-7.613 4.382-.002 7.006 3.47 7.006 7.612zm-11.46 0c0 2.795 1.312 5.552 4.454 5.552 3.128 0 4.444-2.757 4.444-5.553 0-2.784-1.312-5.54-4.443-5.54-3.142 0-4.455 2.756-4.455 5.54zM124.04 65.1h2.563v8.477c0 1.963.125 4.22 3.443 4.22 3.325 0 3.444-2.257 3.444-4.22V65.1h2.566v9.322c0 3.72-2.4 5.578-6.01 5.578-3.607 0-6.007-1.858-6.007-5.58V65.1zM140.03 65.1h6.99c3.194 0 4.842 1.47 4.842 3.93 0 2.792-1.955 3.506-2.412 3.666v.045c.88.123 2.17.77 2.17 3.084 0 1.693.242 3.234.798 3.832h-2.747c-.392-.634-.392-1.436-.392-2.14 0-2.672-.554-3.86-2.91-3.86H142.6v6h-2.57V65.1zm2.57 6.62h4.2c1.614 0 2.5-.787 2.5-2.32 0-1.856-1.213-2.22-2.542-2.22H142.6v4.54zM161.093 65.093h2.666l3.667 11.524h.043l3.753-11.524h2.605l-5.004 14.563h-2.853l-4.877-14.563zM176.47 65.093h2.56v14.563h-2.56V65.093zM184.787 74.802c0 2.246 1.662 3.12 3.71 3.12 2.257 0 3.096-1.102 3.096-2.204 0-1.12-.61-1.577-1.214-1.8-1.022-.375-2.358-.652-4.364-1.2-2.5-.678-3.237-2.175-3.237-3.69 0-2.915 2.707-4.275 5.348-4.275 3.055 0 5.626 1.603 5.626 4.643h-2.57c-.12-1.875-1.393-2.57-3.162-2.57-1.182 0-2.68.43-2.68 1.9 0 1.023.69 1.587 1.744 1.87.227.06 3.465.9 4.223 1.12 1.924.573 2.854 2.203 2.854 3.723 0 3.264-2.92 4.558-5.82 4.558-3.343 0-6.052-1.6-6.117-5.197l2.56.002zM197.635 65.093h2.57v14.563h-2.57V65.093zM217.572 72.37c0 4.16-2.626 7.63-7.014 7.63-4.39 0-7.004-3.47-7.004-7.63 0-4.144 2.615-7.613 7.004-7.613 4.388-.002 7.014 3.47 7.014 7.612zm-11.456 0c0 2.795 1.306 5.552 4.446 5.552 3.137 0 4.45-2.757 4.45-5.553 0-2.784-1.313-5.54-4.45-5.54-3.14 0-4.446 2.756-4.446 5.54zM220.922 65.093h2.698l6.685 10.73h.043v-10.73h2.44v14.563h-2.7l-6.67-10.703h-.055v10.703h-2.44V65.093z" fill="#1c1c1a"/><path d="M161.14 0c-15.768 0-24.873 11.758-24.873 27.877 0 16.114 9.105 27.877 24.874 27.877 15.78 0 24.885-11.76 24.885-27.877C186.024 11.757 176.92 0 161.14 0zm0 46.368c-10.008 0-13.876-9.172-13.876-18.493 0-9.326 3.863-18.5 13.877-18.5 10.02 0 13.896 9.177 13.896 18.5 0 9.32-3.876 18.493-13.895 18.493zM0 1.566h39.54v9.38H11.003V22.61h26.612v9.146H11.004v13.048H39.54v9.37H0V1.566zM44.252 54.176h11V38.4h9.967c13.464 0 22.508-6.588 22.508-18.42 0-11.83-9.046-18.416-22.508-18.416H44.25v52.612zM65.22 29.022H55.25V10.94h9.967c6.91 0 11.51 2.99 11.51 9.04 0 6.046-4.6 9.042-11.51 9.042zM201.484 1.566h-11.3v52.61h10.782V32.87c0-5.828-.217-11.01-.41-15.58 1.272 2.632 5.12 10.546 6.915 13.523l14.034 23.368h11.29V1.567h-10.78V22.35c0 5.828.21 11.54.41 16.115-1.273-2.636-5.12-10.55-6.924-13.522L201.484 1.566zM100.22 36.77c0 7.073 5.914 9.835 12.2 9.835 4.12 0 10.782-1.195 10.782-6.628 0-5.733-8.152-6.816-16.01-8.9-8.248-2.164-16.176-5.248-16.176-14.995C91.013 5.215 101.344 0 111 0c11.154 0 21.4 4.842 21.4 17.122h-10.997c-.377-6.402-5.312-8.04-10.925-8.04-3.75 0-8.468 1.564-8.468 6.027 0 4.094 2.692 4.73 16.088 8.152 3.894.97 16.1 3.31 16.1 15.368 0 9.755-7.706 17.048-22.233 17.048-11.822 0-22.897-5.81-22.748-18.91h11.003zM238.08 6.824c0-2.906 2.37-5.258 5.298-5.258 2.922 0 5.285 2.356 5.285 5.258 0 2.906-2.363 5.264-5.285 5.264-2.93-.002-5.298-2.358-5.298-5.264zm5.296 5.788c3.212 0 5.82-2.59 5.82-5.79 0-3.197-2.608-5.786-5.82-5.786s-5.823 2.59-5.823 5.785c0 3.2 2.61 5.792 5.823 5.792z" fill="#10218b"/><path d="M243.93 6.668c.603 0 1.13-.417 1.13-1.155 0-.733-.527-1.156-1.13-1.156h-1.766v5.855h-1.184V3.438h2.95c1.406 0 2.314.917 2.314 2.075 0 1.015-.75 1.784-1.55 1.914l1.91 2.785h-1.42l-2.28-3.544h1.026z" fill="#10218b"/></svg>